<svg width="36" height="36" viewBox="0 0 36 36" fill="none" xmlns="http://www.w3.org/2000/svg">
<g filter="url(#filter0_d_471_2591)">
<path d="M17.984 27.9986C15.8434 27.9986 13.7028 28.0024 11.5616 27.9974C9.74854 27.993 8.3432 26.7987 8.04009 25.0075C8.00502 24.7995 8.00251 24.5846 8.00251 24.3729C8 21.6206 8.00439 18.8683 8 16.116C7.99813 14.7944 8.53985 13.7715 9.62204 13.0279C11.7175 11.5877 13.8105 10.1439 15.9041 8.70061C17.2531 7.771 18.738 7.76533 20.0832 8.69052C22.1912 10.1407 24.298 11.5909 26.4035 13.0449C27.4594 13.7741 27.9973 14.7837 27.998 16.077C27.998 18.8607 28.0036 21.6445 27.9961 24.4283C27.9917 26.251 26.7955 27.6608 25.0132 27.9608C24.799 27.9967 24.5773 27.9967 24.3594 27.9974C22.2344 27.9999 20.1095 27.9986 17.984 27.9986ZM18.0059 24.4831C18.7862 24.4831 19.5665 24.4844 20.3469 24.4813C20.4546 24.4813 20.5692 24.4762 20.6694 24.4415C20.8823 24.3672 20.9963 24.2008 20.9963 23.9745C20.9963 23.7483 20.8817 23.5844 20.6688 23.5082C20.583 23.4773 20.4853 23.4697 20.3926 23.4697C18.8006 23.4678 17.2093 23.4678 15.6173 23.4697C15.5246 23.4697 15.4275 23.4766 15.3411 23.5056C15.1257 23.5769 15.0136 23.7388 15.0023 23.9645C14.9917 24.1825 15.1319 24.3861 15.3424 24.4453C15.4457 24.4743 15.5578 24.4806 15.6655 24.4813C16.4458 24.4844 17.2262 24.4825 18.0065 24.4825L18.0059 24.4831Z" fill="white"/>
</g>
<defs>
<filter id="filter0_d_471_2591" x="6" y="6" width="24" height="24" filterUnits="userSpaceOnUse" color-interpolation-filters="sRGB">
<feFlood flood-opacity="0" result="BackgroundImageFix"/>
<feColorMatrix in="SourceAlpha" type="matrix" values="0 0 0 0 0 0 0 0 0 0 0 0 0 0 0 0 0 0 127 0" result="hardAlpha"/>
<feOffset/>
<feGaussianBlur stdDeviation="1"/>
<feComposite in2="hardAlpha" operator="out"/>
<feColorMatrix type="matrix" values="0 0 0 0 0 0 0 0 0 0 0 0 0 0 0 0 0 0 0.24 0"/>
<feBlend mode="normal" in2="BackgroundImageFix" result="effect1_dropShadow_471_2591"/>
<feBlend mode="normal" in="SourceGraphic" in2="effect1_dropShadow_471_2591" result="shape"/>
</filter>
</defs>
</svg>
