<svg width="16" height="17" viewBox="0 0 16 17" fill="none" xmlns="http://www.w3.org/2000/svg">
<path d="M0.347542 -0.00440407C0.317908 0.0139618 0.289108 0.0339966 0.258221 0.0506926C-0.013084 0.200119 -0.0781971 0.530692 0.117977 0.770275C0.15429 0.814519 0.196864 0.853336 0.237351 0.893823C1.3305 1.98906 2.42323 3.08471 3.51763 4.1787C3.56104 4.22211 3.62073 4.24965 3.68417 4.29223C3.37447 4.52304 3.10441 4.71546 2.84396 4.9204C1.83304 5.71804 0.938152 6.63129 0.15429 7.65348C-0.0493971 7.91894 -0.0519014 8.09884 0.149699 8.35846C1.34845 9.89988 2.74337 11.2213 4.4576 12.1772C5.59833 12.8133 6.81211 13.1998 8.13273 13.1718C9.28432 13.1476 10.3516 12.8066 11.3654 12.2773C11.4113 12.2536 11.4573 12.2293 11.5495 12.1638C11.5816 12.2177 11.605 12.2807 11.6476 12.3241C12.7758 13.4581 13.9053 14.5909 15.0376 15.7204C15.1503 15.8327 15.2835 15.9233 15.407 16.0234C15.4905 16.0234 15.5736 16.0234 15.6571 16.0234C15.8123 15.9496 15.9267 15.8344 16.0006 15.6791V15.4287C15.9008 15.3051 15.8111 15.1707 15.6996 15.0588C10.7903 10.1365 5.87924 5.21633 0.966952 0.297371C0.855091 0.18551 0.721525 0.0953522 0.597977 -0.00482178H0.34796L0.347542 -0.00440407ZM9.94087 10.6466C8.79555 11.5511 6.86386 11.5966 5.60626 10.2501C4.37621 8.9332 4.55109 7.07247 5.38797 6.05445C5.59374 6.26106 5.80077 6.46433 5.99986 6.67512C6.02073 6.69724 6.0103 6.77112 5.98984 6.80659C5.70894 7.29369 5.60918 7.81251 5.68682 8.37056C5.85711 9.59644 7.06212 10.5084 8.28633 10.3386C8.64779 10.2885 8.9792 10.1645 9.27722 9.98086C9.50136 10.2054 9.71715 10.422 9.94046 10.6462L9.94087 10.6466Z" fill="#555555"/>
<path d="M15.9981 7.88455C15.6124 7.28685 15.132 6.76678 14.6391 6.26048C13.586 5.17818 12.421 4.24281 11.0516 3.58667C10.0135 3.08956 8.92538 2.8049 7.7667 2.84997C6.9482 2.8817 6.16434 3.07411 5.39258 3.39258C5.42889 3.43432 5.45686 3.4698 5.48858 3.50194C5.926 3.94104 6.36635 4.37763 6.80002 4.82048C6.87307 4.89519 6.93192 4.90605 7.02959 4.87474C8.96336 4.25533 11.0278 5.59725 11.2548 7.61325C11.3083 8.0874 11.2649 8.54821 11.1288 9.004C11.1142 9.05325 11.1171 9.13548 11.1484 9.16678C11.7954 9.82375 12.4473 10.4757 13.1102 11.1406C13.2542 11.0238 13.3961 10.9127 13.5334 10.7959C14.3778 10.0784 15.142 9.28365 15.8178 8.40462C15.8833 8.31906 15.9384 8.22556 15.9985 8.13582V7.88539L15.9981 7.88455Z" fill="#555555"/>
<path d="M7.69378 5.71734C8.55694 6.5876 9.42011 7.45786 10.2833 8.32812C10.2979 8.31769 10.3121 8.30767 10.3267 8.29724C10.4047 7.56722 10.2023 6.92277 9.691 6.38851C9.15298 5.82628 8.48599 5.60381 7.72091 5.67393C7.71172 5.68854 7.70254 5.70273 7.69336 5.71734H7.69378Z" fill="#555555"/>
</svg>
