<svg width="36" height="36" viewBox="0 0 36 36" fill="none" xmlns="http://www.w3.org/2000/svg">
<g clip-path="url(#clip0_471_2598)">
<g filter="url(#filter0_d_471_2598)">
<path d="M17.9828 27.9995C17.5115 27.9553 17.0353 27.9306 16.565 27.8617C15.7865 27.7482 15.2791 27.1494 15.2603 26.3638C15.2345 25.2979 14.5431 24.4785 13.502 24.2945C13.0457 24.2138 12.6083 24.2918 12.1951 24.5054C11.3256 24.9547 10.6358 24.7986 10.044 24.0201C9.52582 23.3384 9.10507 22.6013 8.77848 21.8098C8.4309 20.9689 8.65096 20.2683 9.41821 19.7798C10.6175 19.0163 10.7789 17.3963 9.74642 16.4488C9.63343 16.3455 9.5043 16.2578 9.37463 16.1754C8.67033 15.7246 8.43897 14.9923 8.7575 14.2164C9.10077 13.3803 9.5468 12.6039 10.0983 11.8878C10.625 11.2039 11.3686 11.0382 12.1321 11.4385C13.0231 11.9061 14.0163 11.7619 14.6808 11.0635C15.0521 10.6729 15.2441 10.2032 15.2592 9.66511C15.2829 8.8064 15.7682 8.23822 16.6156 8.10748C17.5367 7.9649 18.4616 7.96436 19.3828 8.10479C20.2313 8.23392 20.7171 8.80532 20.7381 9.6635C20.7612 10.6061 21.3956 11.4138 22.307 11.6462C22.8209 11.7769 23.3304 11.7409 23.7893 11.4724C24.5534 11.0253 25.4261 11.198 25.9759 11.9782C26.4763 12.6889 26.9186 13.4271 27.2457 14.2331C27.5556 14.9971 27.32 15.7283 26.6216 16.1727C25.2082 17.0723 25.2119 18.9087 26.6291 19.8104C27.3227 20.2516 27.5562 20.9898 27.243 21.7528C26.9084 22.5701 26.4758 23.3314 25.9415 24.0346C25.3663 24.7911 24.6663 24.9504 23.8205 24.5156C22.7181 23.9496 21.4074 24.3892 20.9275 25.5072C20.8188 25.7596 20.7591 26.048 20.7456 26.3235C20.7053 27.1644 20.2237 27.7466 19.3914 27.8666C18.9276 27.9333 18.4573 27.9564 17.9833 28L17.9828 27.9995ZM20.9619 17.9268C20.9006 16.2669 19.5496 14.9675 17.9446 15.024C16.2766 15.0827 14.9703 16.4412 15.0322 18.0527C15.0956 19.7077 16.4477 21.0087 18.0506 20.9581C19.7099 20.9054 21.0211 19.5404 20.9614 17.9268H20.9619Z" fill="white"/>
</g>
</g>
<defs>
<filter id="filter0_d_471_2598" x="6.61719" y="6" width="22.7656" height="24" filterUnits="userSpaceOnUse" color-interpolation-filters="sRGB">
<feFlood flood-opacity="0" result="BackgroundImageFix"/>
<feColorMatrix in="SourceAlpha" type="matrix" values="0 0 0 0 0 0 0 0 0 0 0 0 0 0 0 0 0 0 127 0" result="hardAlpha"/>
<feOffset/>
<feGaussianBlur stdDeviation="1"/>
<feComposite in2="hardAlpha" operator="out"/>
<feColorMatrix type="matrix" values="0 0 0 0 0 0 0 0 0 0 0 0 0 0 0 0 0 0 0.24 0"/>
<feBlend mode="normal" in2="BackgroundImageFix" result="effect1_dropShadow_471_2598"/>
<feBlend mode="normal" in="SourceGraphic" in2="effect1_dropShadow_471_2598" result="shape"/>
</filter>
<clipPath id="clip0_471_2598">
<rect width="20" height="20" fill="white" transform="translate(8 8)"/>
</clipPath>
</defs>
</svg>
