<svg width="12" height="12" viewBox="0 0 12 12" fill="none" xmlns="http://www.w3.org/2000/svg">
<path d="M10.7984 11.998C10.4945 11.998 10.1826 11.878 9.95068 11.6461L6 7.69543L2.04932 11.6461C1.57747 12.118 0.817727 12.118 0.353882 11.6461C-0.109963 11.1743 -0.117961 10.4145 0.353882 9.95068L4.30456 6L0.353882 2.04932C-0.117961 1.57747 -0.117961 0.825725 0.353882 0.353882C0.825725 -0.117961 1.57747 -0.117961 2.04932 0.353882L6 4.30456L9.95068 0.353882C10.4225 -0.117961 11.1823 -0.117961 11.6461 0.353882C12.11 0.825725 12.118 1.58547 11.6461 2.04932L7.69543 6L11.6461 9.95068C12.118 10.4225 12.118 11.1823 11.6461 11.6461C11.4142 11.878 11.1023 11.998 10.7984 11.998Z" fill="white"/>
</svg>
