<svg width="16" height="16" viewBox="0 0 16 16" fill="none" xmlns="http://www.w3.org/2000/svg">
<path d="M0 7.84587C0.166356 7.60267 0.315546 7.34558 0.50193 7.11914C1.50783 5.89619 2.68377 4.87516 4.10455 4.15579C5.07448 3.66489 6.09715 3.3518 7.18234 3.2488C9.29062 3.04892 11.1974 3.60849 12.9439 4.77339C14.0778 5.52955 15.0232 6.48314 15.8472 7.56221C16.0503 7.8283 16.0511 8.11646 15.8484 8.38132C14.8977 9.62593 13.7871 10.696 12.4293 11.493C11.3065 12.1519 10.104 12.5705 8.80258 12.6939C6.90808 12.8729 5.15868 12.4323 3.53109 11.4697C2.18511 10.6735 1.08561 9.60631 0.144693 8.36824C0.0829738 8.28731 0.0474136 8.18717 0 8.09602C0 8.01264 0 7.92926 0 7.84587ZM7.89437 4.61194C6.06731 4.64545 4.61138 6.19007 4.63754 8.067C4.66288 9.8961 6.2214 11.3639 8.10201 11.33C9.92252 11.2968 11.3879 9.74242 11.3605 7.87326C11.3335 6.04334 9.77538 4.5776 7.89437 4.61194Z" fill="#555555"/>
<path d="M9.81383 7.97505C9.80688 8.9785 8.97633 9.79189 7.96879 9.78167C6.987 9.77186 6.18669 8.9503 6.19241 7.95788C6.19814 6.96056 7.03401 6.15003 8.04604 6.16025C9.01965 6.17006 9.81996 6.99203 9.81342 7.97464L9.81383 7.97505Z" fill="#555555"/>
</svg>
