<svg width="36" height="37" viewBox="0 0 36 37" fill="none" xmlns="http://www.w3.org/2000/svg">
<path d="M16.73 24.6463L16.7 24.4062V23.6758L16.74 23.3556C16.89 22.185 17.35 21.1645 18.13 20.3141C19.36 18.9534 20.98 18.2331 22.81 18.2331C23.05 18.2331 23.29 18.2331 23.54 18.2731C24.89 18.4032 26.1 18.9634 27.06 19.8539V15.4917H8V25.0065C8 26.057 8.9 26.9074 10.01 26.9074H17.51C17.18 26.3471 16.93 25.7368 16.8 25.0665C16.77 24.9264 16.75 24.7864 16.74 24.6463H16.73ZM13.95 22.9854H11.34C10.95 22.9854 10.64 22.6853 10.64 22.3151C10.64 21.9449 10.95 21.6448 11.34 21.6448H13.95C14.34 21.6448 14.65 21.9449 14.65 22.3151C14.65 22.6853 14.34 22.9854 13.95 22.9854ZM15.67 19.7538H11.34C10.95 19.7538 10.64 19.4537 10.64 19.0835C10.64 18.7133 10.95 18.4132 11.34 18.4132H15.67C16.06 18.4132 16.37 18.7033 16.37 19.0835C16.37 19.4637 16.06 19.7538 15.67 19.7538Z" fill="white"/>
<path d="M27.07 12.2301C27.07 11.1796 26.17 10.3292 25.06 10.3292H21.65V9.65882C21.65 9.23861 21.29 8.89844 20.85 8.89844C20.41 8.89844 20.05 9.23861 20.05 9.65882V10.3292H14.03V9.65882C14.03 9.23861 13.67 8.89844 13.23 8.89844C12.79 8.89844 12.43 9.23861 12.43 9.65882V10.3292H10.02C8.9 10.3292 8 11.1796 8 12.2301V14.1311H27.07V12.2301Z" fill="white"/>
<path d="M26.5309 20.7845H26.5509C25.7409 19.9941 24.7409 19.5239 23.5809 19.4138C21.7909 19.2337 20.3009 19.804 19.1209 21.0947C18.4809 21.795 18.1209 22.6354 18.0009 23.5659C18.0009 23.6559 17.9809 23.746 17.9609 23.836V24.4363C17.9909 24.6164 18.0009 24.7865 18.0409 24.9666C18.2809 26.2172 18.9409 27.2177 20.0209 27.9781C20.7509 28.4884 21.5809 28.7885 22.4809 28.8786C22.5409 28.8786 22.6109 28.8986 22.6709 28.8986H23.2909C23.4809 28.8685 23.6709 28.8485 23.8609 28.8185C25.8209 28.5184 27.4809 26.9976 27.8809 25.1567C28.2409 23.4859 27.7909 22.0051 26.5309 20.7745V20.7845ZM25.6109 26.3273C25.5209 26.5074 25.3209 26.6174 25.0909 26.5774C25.0009 26.5574 24.9109 26.5174 24.8509 26.4673C24.0609 25.8971 23.2809 25.3168 22.5009 24.7465C22.3709 24.6564 22.2909 24.5364 22.2909 24.3863C22.2909 23.2057 22.2909 22.0251 22.2909 20.8345C22.2909 20.6044 22.4709 20.4343 22.7009 20.4043C22.9309 20.3743 23.1509 20.5044 23.2209 20.7045C23.2409 20.7645 23.2409 20.8345 23.2409 20.8946C23.2409 21.4148 23.2409 21.9351 23.2409 22.4553C23.2409 22.9756 23.2409 23.5059 23.2409 24.0361C23.2409 24.1262 23.2709 24.1862 23.3509 24.2362C24.0609 24.7465 24.7609 25.2667 25.4609 25.787C25.6509 25.9271 25.7009 26.1272 25.6109 26.3173V26.3273Z" fill="white"/>
</svg>
