<svg width="120" height="120" viewBox="0 0 120 120" fill="none" xmlns="http://www.w3.org/2000/svg">
<path d="M52.3802 94.4912L52.2002 93.0504V88.6681L52.4402 86.7471C53.3402 79.7235 56.1002 73.6003 60.7802 68.4976C68.1602 60.3333 77.8803 56.0111 88.8603 56.0111C90.3003 56.0111 91.7403 56.0111 93.2403 56.2512C101.34 57.0316 108.6 60.3934 114.36 65.7362V39.5625H0V96.6523C0 102.956 5.40002 108.058 12.06 108.058H57.0602C55.0802 104.696 53.5802 101.035 52.8002 97.0125C52.6202 96.172 52.5002 95.3316 52.4402 94.4912H52.3802ZM35.7001 84.526H20.0401C17.7001 84.526 15.8401 82.725 15.8401 80.5039C15.8401 78.2827 17.7001 76.4818 20.0401 76.4818H35.7001C38.0401 76.4818 39.9001 78.2827 39.9001 80.5039C39.9001 82.725 38.0401 84.526 35.7001 84.526ZM46.0201 65.1358H20.0401C17.7001 65.1358 15.8401 63.3349 15.8401 61.1137C15.8401 58.8926 17.7001 57.0916 20.0401 57.0916H46.0201C48.3602 57.0916 50.2202 58.8326 50.2202 61.1137C50.2202 63.3949 48.3602 65.1358 46.0201 65.1358Z" fill="#D8DAFF"/>
<path d="M114.42 19.9904C114.42 13.6871 109.02 8.58448 102.36 8.58448H81.9003V4.56238C81.9003 2.04106 79.7403 0 77.1003 0C74.4602 0 72.3002 2.04106 72.3002 4.56238V8.58448H36.1801V4.56238C36.1801 2.04106 34.0201 0 31.3801 0C28.7401 0 26.5801 2.04106 26.5801 4.56238V8.58448H12.12C5.40002 8.58448 0 13.6871 0 19.9904V31.3964H114.42V19.9904Z" fill="#4879FF"/>
<path d="M111.18 71.3156H111.3C106.44 66.5731 100.44 63.7516 93.4799 63.0913C82.7398 62.0107 73.7998 65.4325 66.7198 73.1766C62.8798 77.3787 60.7198 82.4214 59.9998 88.0043C59.9998 88.5446 59.8798 89.0849 59.7598 89.6251V93.227C59.9398 94.3076 59.9998 95.3281 60.2398 96.4087C61.6798 103.913 65.6398 109.916 72.1198 114.478C76.4998 117.54 81.4798 119.341 86.8798 119.881C87.2398 119.881 87.6599 120.001 88.0199 120.001H91.7399C92.8799 119.821 94.0199 119.701 95.1599 119.521C106.92 117.72 116.88 108.595 119.28 97.5493C121.44 87.524 118.74 78.6394 111.18 71.2556V71.3156ZM105.66 104.573C105.12 105.654 103.92 106.314 102.54 106.074C102 105.954 101.46 105.714 101.1 105.413C96.3599 101.992 91.6799 98.5098 86.9999 95.088C86.2199 94.5477 85.7398 93.8273 85.7398 92.9269C85.7398 85.8432 85.7398 78.7595 85.7398 71.6157C85.7398 70.235 86.8199 69.2145 88.1999 69.0344C89.5799 68.8543 90.8999 69.6347 91.3199 70.8353C91.4399 71.1955 91.4399 71.6157 91.4399 71.9759C91.4399 75.0976 91.4399 78.2192 91.4399 81.3408C91.4399 84.4625 91.4399 87.6441 91.4399 90.8258C91.4399 91.3661 91.6199 91.7262 92.0999 92.0264C96.3599 95.088 100.56 98.2096 104.76 101.331C105.9 102.172 106.2 103.372 105.66 104.513V104.573Z" fill="url(#paint0_linear_697_875)"/>
<defs>
<linearGradient id="paint0_linear_697_875" x1="89.8799" y1="62.8965" x2="89.8799" y2="120.001" gradientUnits="userSpaceOnUse">
<stop stop-color="#A18BFF"/>
<stop offset="1" stop-color="#5235FF"/>
</linearGradient>
</defs>
</svg>
