<svg width="220" height="30" viewBox="0 0 220 30" fill="none" xmlns="http://www.w3.org/2000/svg">
<path d="M35.7535 1.42102L28.0114 29.4714H24.1599L17.9351 6.55645L11.5936 29.4714H7.66424L0 1.42102H4.0461L9.80401 24.3359L16.0677 1.42102H19.8025L26.0662 24.3359L31.9019 1.42102H35.7535Z" fill="#003399"/>
<path d="M54.3888 27.4477C53.4551 28.0961 52.3398 28.6473 51.043 29.1011C49.7462 29.555 48.1252 29.782 46.1799 29.782C44.8572 29.782 43.6317 29.5939 42.5034 29.2179C41.3752 28.8418 40.3896 28.2582 39.5467 27.4671C38.7037 26.6761 38.0423 25.6581 37.5625 24.4131C37.0827 23.1682 36.8428 21.6898 36.8428 19.978V17.5659C36.8428 15.9578 37.0697 14.5443 37.5236 13.3253C37.9775 12.1062 38.6129 11.0882 39.4299 10.2712C40.2469 9.45423 41.2131 8.83824 42.3284 8.42326C43.4436 8.00827 44.6626 7.80078 45.9854 7.80078C48.7087 7.80078 50.8744 8.63075 52.4825 10.2907C54.0906 11.9506 54.8946 14.2979 54.8946 17.3325V20.1725H40.5776V20.3281C40.5776 22.3512 41.1093 23.8879 42.1727 24.9383C43.2361 25.9888 44.6237 26.514 46.3355 26.514C47.7361 26.514 48.9357 26.3454 49.9342 26.0082C50.9328 25.671 51.886 25.2042 52.7937 24.6076L54.3888 27.4477ZM45.9854 11.0299C45.2073 11.0299 44.4876 11.166 43.8262 11.4384C43.1648 11.7107 42.5942 12.0868 42.1144 12.5666C41.6345 13.0464 41.2585 13.63 40.9861 14.3173C40.7138 15.0046 40.5776 15.7503 40.5776 16.5544V17.099H51.2375V16.3987C51.2375 14.7647 50.7707 13.4614 49.837 12.4888C48.9033 11.5162 47.6194 11.0299 45.9854 11.0299Z" fill="#003399"/>
<path d="M70.8788 9.24088C70.7491 8.95558 70.6323 8.67676 70.5286 8.40443C70.4249 8.13209 70.3211 7.85328 70.2174 7.56798C70.1136 7.28267 69.9969 6.95847 69.8672 6.59536C69.7375 6.23224 69.5949 5.81726 69.4393 5.3504V29.4714H65.7822V1.42102H71.4623L79.2433 19.7841L86.8297 1.42102H92.4709V29.4714H88.7749V5.3504C88.6453 5.86913 88.5221 6.30357 88.4054 6.65371C88.2886 7.00386 88.1849 7.32158 88.0941 7.60688C88.0033 7.89218 87.9061 8.16451 87.8023 8.42388C87.6986 8.68325 87.5819 8.95558 87.4522 9.24088L80.7606 24.8028H77.4926L70.8788 9.24088Z" fill="#003399"/>
<path d="M113.206 27.4477C112.272 28.0961 111.157 28.6473 109.86 29.1011C108.564 29.555 106.943 29.782 104.997 29.782C103.675 29.782 102.449 29.5939 101.321 29.2179C100.193 28.8418 99.207 28.2582 98.364 27.4671C97.5211 26.6761 96.8597 25.6581 96.3799 24.4131C95.9001 23.1682 95.6602 21.6898 95.6602 19.978V17.5659C95.6602 15.9578 95.8871 14.5443 96.341 13.3253C96.7949 12.1062 97.4303 11.0882 98.2473 10.2712C99.0643 9.45423 100.03 8.83824 101.146 8.42326C102.261 8.00827 103.48 7.80078 104.803 7.80078C107.526 7.80078 109.692 8.63075 111.3 10.2907C112.908 11.9506 113.712 14.2979 113.712 17.3325V20.1725H99.395V20.3281C99.395 22.3512 99.9267 23.8879 100.99 24.9383C102.054 25.9888 103.441 26.514 105.153 26.514C106.553 26.514 107.753 26.3454 108.752 26.0082C109.75 25.671 110.703 25.2042 111.611 24.6076L113.206 27.4477ZM104.803 11.0299C104.025 11.0299 103.305 11.166 102.644 11.4384C101.982 11.7107 101.412 12.0868 100.932 12.5666C100.452 13.0464 100.076 13.63 99.8035 14.3173C99.5312 15.0046 99.395 15.7503 99.395 16.5544V17.099H110.055V16.3987C110.055 14.7647 109.588 13.4614 108.654 12.4888C107.721 11.5162 106.437 11.0299 104.803 11.0299Z" fill="#003399"/>
<path d="M145.886 29.4707H142.113V16.71C142.113 13.0529 140.777 11.2244 138.105 11.2244C137.509 11.2244 136.919 11.3217 136.335 11.5162C135.752 11.7107 135.227 12.009 134.76 12.411C134.293 12.813 133.91 13.3317 133.612 13.9672C133.314 14.6026 133.165 15.3483 133.165 16.2042V29.4707H129.391V16.71C129.391 13.0529 128.055 11.2244 125.384 11.2244C124.787 11.2244 124.197 11.3152 123.613 11.4967C123.03 11.6783 122.505 11.9636 122.038 12.3526C121.571 12.7417 121.188 13.241 120.89 13.8505C120.592 14.46 120.443 15.1797 120.443 16.0097V29.4707H116.669V8.18983H120.404V11.0688H120.443C120.858 10.1351 121.539 9.35697 122.485 8.7345C123.432 8.11202 124.644 7.80078 126.123 7.80078C127.601 7.80078 128.788 8.10554 129.838 8.71504C130.889 9.32455 131.686 10.1999 132.231 11.3411C132.905 10.3037 133.755 9.45423 134.779 8.79285C135.804 8.13147 137.159 7.80078 138.845 7.80078C141.049 7.80078 142.774 8.46865 144.019 9.80438C145.264 11.1401 145.886 13.04 145.886 15.5039V29.4707Z" fill="#003399"/>
<path d="M153.473 10.6409C154.147 9.57754 155.036 8.83835 156.138 8.42336C157.24 8.00838 158.375 7.80089 159.542 7.80089C162.24 7.80089 164.301 8.58547 165.728 10.1546C167.154 11.7238 167.868 13.9608 167.868 16.8657V20.6395C167.868 22.0919 167.66 23.3822 167.245 24.5105C166.83 25.6387 166.253 26.5919 165.514 27.37C164.775 28.1481 163.887 28.7446 162.849 29.1596C161.812 29.5746 160.67 29.7821 159.425 29.7821C157.817 29.7821 156.534 29.5033 155.574 28.9456C154.614 28.388 153.901 27.7331 153.434 26.9809H153.356V29.4708H149.699V0.0588379H153.473V10.6409ZM153.434 21.8844C153.434 22.4291 153.57 22.9802 153.843 23.5379C154.115 24.0955 154.504 24.5883 155.01 25.0163C155.515 25.4442 156.106 25.7943 156.78 26.0667C157.454 26.339 158.206 26.4752 159.036 26.4752C160.644 26.4752 161.896 25.9175 162.791 24.8023C163.685 23.687 164.133 22.1178 164.133 20.0948V17.4882C164.133 15.4651 163.679 13.896 162.771 12.7807C161.863 11.6654 160.619 11.1078 159.036 11.1078C158.258 11.1078 157.532 11.2375 156.858 11.4968C156.183 11.7562 155.593 12.1193 155.088 12.5862C154.582 13.053 154.18 13.6172 153.881 14.2785C153.583 14.9399 153.434 15.6856 153.434 16.5156V21.8844Z" fill="#003399"/>
<path d="M187.398 27.4477C186.464 28.0961 185.349 28.6473 184.052 29.1011C182.755 29.555 181.134 29.782 179.189 29.782C177.866 29.782 176.64 29.5939 175.512 29.2179C174.384 28.8418 173.398 28.2582 172.555 27.4671C171.712 26.6761 171.051 25.6581 170.571 24.4131C170.091 23.1682 169.852 21.6898 169.852 19.978V17.5659C169.852 15.9578 170.078 14.5443 170.532 13.3253C170.986 12.1062 171.622 11.0882 172.439 10.2712C173.256 9.45423 174.222 8.83824 175.337 8.42326C176.452 8.00827 177.671 7.80078 178.994 7.80078C181.718 7.80078 183.883 8.63075 185.491 10.2907C187.099 11.9506 187.903 14.2979 187.903 17.3325V20.1725H173.586V20.3281C173.586 22.3512 174.118 23.8879 175.182 24.9383C176.245 25.9888 177.633 26.514 179.344 26.514C180.745 26.514 181.944 26.3454 182.943 26.0082C183.942 25.671 184.895 25.2042 185.803 24.6076L187.398 27.4477ZM178.994 11.0299C178.216 11.0299 177.496 11.166 176.835 11.4384C176.174 11.7107 175.603 12.0868 175.123 12.5666C174.643 13.0464 174.267 13.63 173.995 14.3173C173.723 15.0046 173.586 15.7503 173.586 16.5544V17.099H184.246V16.3987C184.246 14.7647 183.779 13.4614 182.846 12.4888C181.912 11.5162 180.628 11.0299 178.994 11.0299Z" fill="#003399"/>
<path d="M202.454 11.8858C202.091 11.7302 201.695 11.607 201.267 11.5162C200.839 11.4254 200.366 11.38 199.847 11.38C199.147 11.38 198.479 11.5162 197.844 11.7885C197.208 12.0609 196.657 12.4499 196.19 12.9557C195.723 13.4614 195.347 14.0645 195.062 14.7647C194.777 15.465 194.634 16.2301 194.634 17.0601V29.4707H190.86V8.18983H194.517V11.5745H194.556C195.179 10.3815 195.989 9.45423 196.988 8.79285C197.986 8.13147 199.264 7.80078 200.82 7.80078C201.754 7.80078 202.674 7.94343 203.582 8.22873L202.454 11.8858Z" fill="#003399"/>
<path d="M211.752 26.514C213.153 26.514 214.242 26.2676 215.02 25.7748C215.798 25.282 216.187 24.6076 216.187 23.7517V23.4405C216.187 22.9996 216.122 22.6235 215.993 22.3123C215.863 22.001 215.617 21.7287 215.253 21.4953C214.89 21.2618 214.398 21.0479 213.775 20.8533C213.153 20.6588 212.336 20.4578 211.324 20.2503C210.157 20.0169 209.12 19.7316 208.212 19.3944C207.304 19.0572 206.539 18.6487 205.916 18.1689C205.294 17.6891 204.821 17.112 204.496 16.4376C204.172 15.7633 204.01 14.9593 204.01 14.0255V13.5587C204.01 12.8325 204.166 12.1192 204.477 11.4189C204.788 10.7186 205.268 10.1026 205.916 9.57095C206.565 9.03925 207.388 8.6113 208.387 8.28709C209.385 7.96288 210.572 7.80078 211.947 7.80078C213.399 7.80078 214.754 7.96288 216.012 8.28709C217.27 8.6113 218.431 9.14948 219.494 9.90164L217.821 12.7417C217.121 12.223 216.284 11.808 215.312 11.4967C214.339 11.1855 213.308 11.0299 212.219 11.0299C210.637 11.0299 209.502 11.2698 208.815 11.7496C208.127 12.2294 207.784 12.8454 207.784 13.5976V13.9477C207.784 14.7777 208.134 15.3937 208.834 15.7957C209.534 16.1977 210.715 16.5544 212.375 16.8656C213.671 17.099 214.8 17.3843 215.759 17.7215C216.719 18.0587 217.51 18.4801 218.132 18.9859C218.755 19.4917 219.222 20.0947 219.533 20.795C219.844 21.4953 220 22.3382 220 23.3238V23.8295C220 24.6595 219.812 25.4376 219.436 26.1638C219.06 26.8901 218.521 27.519 217.821 28.0507C217.121 28.5824 216.271 29.0039 215.273 29.3151C214.274 29.6264 213.153 29.782 211.908 29.782C210.118 29.782 208.497 29.5486 207.045 29.0817C205.592 28.6148 204.36 27.9924 203.349 27.2143L205.099 24.2575C206.059 24.9059 207.083 25.4441 208.173 25.8721C209.262 26.3 210.455 26.514 211.752 26.514Z" fill="#003399"/>
</svg>
